<?xml version="1.0" encoding="UTF-8" standalone="no" ?>
<!DOCTYPE svg PUBLIC "-//W3C//DTD SVG 1.1//EN" "http://www.w3.org/Graphics/SVG/1.1/DTD/svg11.dtd">
<svg xmlns="http://www.w3.org/2000/svg" xmlns:xlink="http://www.w3.org/1999/xlink" version="1.1" width="500" height="500" viewBox="0 0 500 500" xml:space="preserve">
<desc>Created with Fabric.js 4.6.0</desc>
<defs>
</defs>
<g transform="matrix(1.45 0 0 1.45 250 124.54)" id="3_rNUoHgXFOQUodS4v6Hd"  >
<path style="stroke: none; stroke-width: 1; stroke-dasharray: none; stroke-linecap: butt; stroke-dashoffset: 0; stroke-linejoin: miter; stroke-miterlimit: 4; fill: rgb(202,233,247); fill-rule: nonzero; opacity: 1;" vector-effect="non-scaling-stroke"  transform=" translate(-89.3, -710.45)" d="M 89.29579 736.2467 C 86.402 736.2467 84.05678 732.95703 84.05678 728.89966 L 84.05674 692.00226 C 84.05673 687.9441 86.403046 684.6553 89.29586 684.6553 C 92.18916 684.6553 94.53462 687.9448 94.53464 692.00226 L 94.53467 728.8982 C 94.53528 732.95654 92.189224 736.2467 89.29579 736.2467 Z" stroke-linecap="round" />
</g>
<g transform="matrix(1.45 0 0 1.45 249.99 71.71)" id="sCMGLgBryZQwB4uyM8AyR"  >
<path style="stroke: none; stroke-width: 1; stroke-dasharray: none; stroke-linecap: butt; stroke-dashoffset: 0; stroke-linejoin: miter; stroke-miterlimit: 4; fill: rgb(99,112,121); fill-rule: nonzero; opacity: 1;" vector-effect="non-scaling-stroke"  transform=" translate(-89.29, -673.94)" d="M 114.21805 673.93915 C 114.21806 687.7046 103.05928 698.8631 89.29453 698.8631 C 75.52941 698.8631 64.37073 687.7046 64.37072 673.93964 C 64.37071 660.1745 75.52986 649.01575 89.29449 649.01575 C 103.05923 649.01575 114.21803 660.1745 114.21805 673.93915 Z" stroke-linecap="round" />
</g>
<g transform="matrix(1.45 0 0 1.45 250 161.87)" id="cmyeF5W64MFDZxhl2uIxT"  >
<path style="stroke: none; stroke-width: 1; stroke-dasharray: none; stroke-linecap: butt; stroke-dashoffset: 0; stroke-linejoin: miter; stroke-miterlimit: 4; fill: rgb(99,112,121); fill-rule: nonzero; opacity: 1;" vector-effect="non-scaling-stroke"  transform=" translate(-89.3, -736.25)" d="M 134.98799 725.1697 L 43.60406 725.17017 C 36.720158 725.1697 31.142647 730.7478 31.14265 737.6312 L 31.142654 747.3234 L 147.44969 747.3239 L 147.44968 737.6312 C 147.44965 730.7488 141.87007 725.1697 134.98799 725.1697 Z" stroke-linecap="round" />
</g>
<g transform="matrix(1.45 0 0 1.45 235.98 71.71)" id="4l1euUfDmWGU1QmPgRDPt"  >
<path style="stroke: none; stroke-width: 1; stroke-dasharray: none; stroke-linecap: butt; stroke-dashoffset: 0; stroke-linejoin: miter; stroke-miterlimit: 4; fill: rgb(35,31,32); fill-opacity: 0.1; fill-rule: nonzero; opacity: 1;" vector-effect="non-scaling-stroke"  transform=" translate(-79.61, -673.94)" d="M 75.48423 673.93915 C 75.484215 662.08514 83.76239 652.171 94.851845 649.6456 C 93.064255 649.23816 91.20769 649.0165 89.296684 649.0165 C 75.531204 649.01624 64.3734 660.1745 64.373405 673.93964 C 64.37341 687.70435 75.53124 698.8626 89.2971 698.8631 C 91.20737 698.8631 93.0643 698.6402 94.85189 698.2332 C 83.761826 695.7066 75.48424 685.7932 75.48423 673.93915 Z" stroke-linecap="round" />
</g>
<g transform="matrix(1.45 0 0 1.45 182.91 161.87)" id="ABGmFneDnXLeKt22j2raS"  >
<path style="stroke: none; stroke-width: 1; stroke-dasharray: none; stroke-linecap: butt; stroke-dashoffset: 0; stroke-linejoin: miter; stroke-miterlimit: 4; fill: rgb(35,31,32); fill-opacity: 0.1; fill-rule: nonzero; opacity: 1;" vector-effect="non-scaling-stroke"  transform=" translate(-42.93, -736.25)" d="M 54.71513 725.1697 L 43.60455 725.17017 C 36.720768 725.1697 31.143013 730.7478 31.143017 737.6312 L 31.14302 747.3234 L 42.25434 747.3239 L 42.254333 737.6312 C 42.25433 730.7488 47.831593 725.1697 54.71513 725.1697 Z" stroke-linecap="round" />
</g>
<g transform="matrix(1.45 0 0 1.45 249.99 441.31)" id="rgguHVOhRX5ewO4AEUJoF"  >
<path style="stroke: none; stroke-width: 1; stroke-dasharray: none; stroke-linecap: butt; stroke-dashoffset: 0; stroke-linejoin: miter; stroke-miterlimit: 4; fill: rgb(99,112,121); fill-rule: nonzero; opacity: 1;" vector-effect="non-scaling-stroke"  transform=" translate(-89.29, -929.38)" d="M 117.21485 945.3062 L 53.64092 945.3072 C 46.759808 945.3062 41.178745 939.7264 41.17874 932.8449 L 41.17874 925.9223 C 41.178734 919.0401 46.75894 913.4605 53.640903 913.4605 L 124.94786 913.46124 C 131.83165 913.4605 137.40991 919.0401 137.40993 925.9223 L 137.4098 932.8449 C 137.40994 939.72687 131.83182 945.3062 124.94789 945.3062 L 117.21485 945.3072" stroke-linecap="round" />
</g>
<g transform="matrix(1.45 0 0 1.45 197.44 441.31)" id="juIIgao6a-vsnrJeV0Ibo"  >
<path style="stroke: none; stroke-width: 1; stroke-dasharray: none; stroke-linecap: butt; stroke-dashoffset: 0; stroke-linejoin: miter; stroke-miterlimit: 4; fill: rgb(35,31,32); fill-opacity: 0.1; fill-rule: nonzero; opacity: 1;" vector-effect="non-scaling-stroke"  transform=" translate(-52.97, -929.38)" d="M 52.29008 932.8449 L 52.29008 925.9223 C 52.290073 919.0401 57.870277 913.4605 64.75213 913.4605 L 53.641514 913.46124 C 46.760162 913.4605 41.17959 919.0401 41.179596 925.9223 L 41.17935 932.8449 C 41.179356 939.72687 46.759808 945.3062 53.64153 945.3062 L 64.752144 945.3072 C 57.87005 945.3062 52.289845 939.72614 52.29008 932.8449 Z" stroke-linecap="round" />
</g>
<g transform="matrix(1.45 0 0 1.45 66.42 297.59)" id="XCEDdlYYoaQVHTj2AGuiH"  >
<path style="stroke: none; stroke-width: 1; stroke-dasharray: none; stroke-linecap: butt; stroke-dashoffset: 0; stroke-linejoin: miter; stroke-miterlimit: 4; fill: rgb(99,112,121); fill-rule: nonzero; opacity: 1;" vector-effect="non-scaling-stroke"  transform=" translate(37.58, -830.05)" d="M -22.236338 794.2224 C -39.202213 794.3198 -52.928043 810.31964 -52.928062 830.04865 C -52.928127 849.7785 -39.202545 865.77795 -22.236595 865.8763 L -22.236338 794.2224 Z" stroke-linecap="round" />
</g>
<g transform="matrix(1.45 0 0 1.45 433.59 297.59)" id="hSE61yqgpAnFAaV1Os8EI"  >
<path style="stroke: none; stroke-width: 1; stroke-dasharray: none; stroke-linecap: butt; stroke-dashoffset: 0; stroke-linejoin: miter; stroke-miterlimit: 4; fill: rgb(99,112,121); fill-rule: nonzero; opacity: 1;" vector-effect="non-scaling-stroke"  transform=" translate(-216.18, -830.05)" d="M 200.82938 794.2224 C 217.79337 794.3198 231.52104 810.31964 231.5211 830.0491 C 231.52138 849.77844 217.79352 865.7784 200.82953 865.8765 L 200.82938 794.2224 Z" stroke-linecap="round" />
</g>
<g transform="matrix(1.45 0 0 1.45 249.99 298.59)" id="ZHAOUT-CQnI6O0RIRwjOA"  >
<path style="stroke: none; stroke-width: 1; stroke-dasharray: none; stroke-linecap: butt; stroke-dashoffset: 0; stroke-linejoin: miter; stroke-miterlimit: 4; fill: rgb(246,253,255); fill-rule: nonzero; opacity: 1;" vector-effect="non-scaling-stroke"  transform=" translate(-89.29, -830.74)" d="M 202.14151 746.62506 L 13.829926 746.62604 L -3.6337426 746.62555 L -23.550531 746.62604 C -30.433033 746.62555 -36.012802 752.205 -36.01281 759.0869 L -36.01323 902.3962 C -36.013233 909.2791 -30.433392 914.858 -23.550879 914.8575 L 202.14151 914.8584 C 209.023 914.8574 214.60258 909.2781 214.60255 902.3956 L 214.60237 759.0869 C 214.60234 752.2045 209.02322 746.62506 202.14151 746.62506 Z" stroke-linecap="round" />
</g>
<g transform="matrix(1.45 0 0 1.45 165.85 262.02)" id="l9o79KbPf1cgiWTIyLGtN"  >
<path style="stroke: none; stroke-width: 1; stroke-dasharray: none; stroke-linecap: butt; stroke-dashoffset: 0; stroke-linejoin: miter; stroke-miterlimit: 4; fill: rgb(99,112,121); fill-rule: nonzero; opacity: 1;" vector-effect="non-scaling-stroke"  transform=" translate(-31.14, -805.47)" d="M 46.370945 805.4722 C 46.37095 813.884 39.55235 820.70306 31.140728 820.70306 C 22.729229 820.70306 15.910261 813.88446 15.910259 805.4725 C 15.910255 797.06104 22.72922 790.24207 31.140717 790.24207 C 39.552334 790.24207 46.370937 797.0608 46.370945 805.4722 Z" stroke-linecap="round" />
</g>
<g transform="matrix(1.45 0 0 1.45 334.14 262.02)" id="ZwvC0OXVqyiE8vLAM4aPE"  >
<path style="stroke: none; stroke-width: 1; stroke-dasharray: none; stroke-linecap: butt; stroke-dashoffset: 0; stroke-linejoin: miter; stroke-miterlimit: 4; fill: rgb(99,112,121); fill-rule: nonzero; opacity: 1;" vector-effect="non-scaling-stroke"  transform=" translate(-147.45, -805.47)" d="M 162.67924 805.47217 C 162.67926 813.88385 155.86069 820.70306 147.44894 820.70306 C 139.03745 820.70306 132.2187 813.88385 132.21869 805.47217 C 132.21869 797.0608 139.0374 790.24207 147.44888 790.2416 C 155.86026 790.24207 162.67924 797.0608 162.67924 805.47217 Z" stroke-linecap="round" />
</g>
<g transform="matrix(1.45 0 0 1.45 61.89 297.59)" id="HVE6WD6d81aBhYAvWh-0D"  >
<path style="stroke: none; stroke-width: 1; stroke-dasharray: none; stroke-linecap: butt; stroke-dashoffset: 0; stroke-linejoin: miter; stroke-miterlimit: 4; fill: rgb(35,31,32); fill-opacity: 0.1; fill-rule: nonzero; opacity: 1;" vector-effect="non-scaling-stroke"  transform=" translate(40.71, -830.05)" d="M -42.926716 830.04865 C -42.926464 815.88275 -37.291573 803.25275 -28.488531 794.9971 C -42.44995 798.42334 -52.928047 812.8127 -52.928062 830.04865 C -52.928066 847.28656 -42.450043 861.67535 -28.48886 865.1007 C -37.291653 856.8455 -42.92672 844.216 -42.926716 830.04865 Z" stroke-linecap="round" />
</g>
<g transform="matrix(1.45 0 0 1.45 85.73 298.59)" id="TbdMhzxTB7c5YPadnl0HA"  >
<path style="stroke: none; stroke-width: 1; stroke-dasharray: none; stroke-linecap: butt; stroke-dashoffset: 0; stroke-linejoin: miter; stroke-miterlimit: 4; fill: rgb(35,31,32); fill-opacity: 0.1; fill-rule: nonzero; opacity: 1;" vector-effect="non-scaling-stroke"  transform=" translate(24.23, -830.74)" d="M -24.90067 902.3957 L -24.90033 759.0869 C -24.900326 752.205 -19.32196 746.62506 -12.438239 746.62555 L -23.550531 746.62604 C -30.433033 746.62555 -36.012802 752.205 -36.01281 759.0869 L -36.01323 902.3962 C -36.013233 909.2791 -30.433392 914.858 -23.550879 914.8575 L -12.439783 914.85846 C -19.322357 914.8575 -24.900913 909.2781 -24.90067 902.3957 Z" stroke-linecap="round" />
</g>
<g transform="matrix(1.45 0 0 1.45 158.85 262.02)" id="-xV8VDRHjR4TJTwlYU_mo"  >
<path style="stroke: none; stroke-width: 1; stroke-dasharray: none; stroke-linecap: butt; stroke-dashoffset: 0; stroke-linejoin: miter; stroke-miterlimit: 4; fill: rgb(35,31,32); fill-opacity: 0.1; fill-rule: nonzero; opacity: 1;" vector-effect="non-scaling-stroke"  transform=" translate(-26.3, -805.47)" d="M 27.02256 805.47174 C 27.022556 799.0215 31.034641 793.5112 36.69784 791.29114 C 34.975918 790.6166 33.10397 790.2411 31.143158 790.2411 C 22.73044 790.2411 15.91172 797.0608 15.911724 805.47174 C 15.911726 813.8837 22.73045 820.70233 31.14317 820.70233 C 33.103985 820.70233 34.975933 820.32684 36.697857 819.6525 C 31.033794 817.4323 27.022808 811.92255 27.02256 805.47174 Z" stroke-linecap="round" />
</g>
<g transform="matrix(1.45 0 0 1.45 327.14 262.02)" id="DbHnBmknWMp7Kso8OZtuu"  >
<path style="stroke: none; stroke-width: 1; stroke-dasharray: none; stroke-linecap: butt; stroke-dashoffset: 0; stroke-linejoin: miter; stroke-miterlimit: 4; fill: rgb(35,31,32); fill-opacity: 0.1; fill-rule: nonzero; opacity: 1;" vector-effect="non-scaling-stroke"  transform=" translate(-142.61, -805.47)" d="M 143.32977 805.4717 C 143.32977 799.021 147.34172 793.5112 153.00577 791.29114 C 151.28372 790.6166 149.41068 790.2411 147.44986 790.2411 C 139.03764 790.2411 132.2193 797.0603 132.2193 805.4717 C 132.21944 813.8831 139.03769 820.70233 147.44992 820.70233 C 149.4111 820.70233 151.28378 820.32684 153.00583 819.6525 C 147.34175 817.4322 143.32979 811.9224 143.32977 805.4717 Z" stroke-linecap="round" />
</g>
</svg>